<svg xmlns="http://www.w3.org/2000/svg" xmlns:xlink="http://www.w3.org/1999/xlink" width="1024" zoomAndPan="magnify" viewBox="0 0 768 767.999994" height="1024" preserveAspectRatio="xMidYMid meet" version="1.0"><defs><g/></defs><rect x="-76.8" width="921.6" fill="#ffffff" y="-76.799999" height="921.599993" fill-opacity="1"/><rect x="-76.8" width="921.6" fill="#f8f7f2" y="-76.799999" height="921.599993" fill-opacity="1"/><g fill="#000000" fill-opacity="1"><g transform="translate(94.931233, 513.445864)"><g><path d="M 233.203125 -82.109375 L 263.5625 -187.453125 C 267.3125 -200.203125 269.75 -209.265625 270.875 -214.640625 C 272 -220.015625 272.5625 -224.953125 272.5625 -229.453125 C 272.5625 -236.453125 270.6875 -241.765625 266.9375 -245.390625 C 263.195312 -249.015625 257.953125 -250.828125 251.203125 -250.828125 L 253.078125 -257.578125 L 323.5625 -257.578125 L 321.6875 -250.828125 C 310.4375 -249.828125 302.125 -245.390625 296.75 -237.515625 C 291.375 -229.640625 286.6875 -218.703125 282.6875 -204.703125 L 223.078125 2.25 L 215.578125 2.25 L 104.984375 -218.203125 L 61.109375 -65.234375 C 60.359375 -62.734375 59.171875 -58.796875 57.546875 -53.421875 C 55.921875 -48.046875 54.859375 -43.859375 54.359375 -40.859375 C 53.859375 -37.867188 53.609375 -34.875 53.609375 -31.875 C 53.609375 -24.625 56.046875 -18.875 60.921875 -14.625 C 65.796875 -10.375 72.234375 -7.75 80.234375 -6.75 L 78.359375 0 L 3.75 0 L 5.625 -6.75 C 16.125 -8.75 24.242188 -14.25 29.984375 -23.25 C 35.734375 -32.25 41.609375 -47.242188 47.609375 -68.234375 L 94.859375 -233.203125 C 90.359375 -239.703125 85.984375 -244.265625 81.734375 -246.890625 C 77.484375 -249.515625 72.234375 -250.828125 65.984375 -250.828125 L 67.859375 -257.578125 L 146.21875 -257.578125 Z M 233.203125 -82.109375 "/></g></g></g><g fill="#000000" fill-opacity="1"><g transform="translate(383.992131, 513.445864)"><g><path d="M 282.3125 -151.84375 C 282.3125 -122.351562 274.5 -96.046875 258.875 -72.921875 C 243.257812 -49.796875 222.703125 -31.859375 197.203125 -19.109375 C 171.710938 -6.367188 144.71875 0 116.21875 0 L 3.75 0 L 5.625 -6.75 C 13.875 -6.75 20.3125 -8.25 24.9375 -11.25 C 29.5625 -14.25 33.054688 -18.5 35.421875 -24 C 37.796875 -29.5 40.609375 -37.742188 43.859375 -48.734375 L 91.484375 -214.453125 C 94.234375 -224.203125 95.609375 -230.703125 95.609375 -233.953125 C 95.609375 -240.703125 92.796875 -245.203125 87.171875 -247.453125 C 81.546875 -249.703125 74.234375 -250.828125 65.234375 -250.828125 L 67.109375 -257.578125 L 166.09375 -257.578125 C 187.332031 -257.578125 206.765625 -253.578125 224.390625 -245.578125 C 242.015625 -237.578125 256.070312 -225.640625 266.5625 -209.765625 C 277.0625 -193.898438 282.3125 -174.59375 282.3125 -151.84375 Z M 94.484375 -28.125 C 94.484375 -23.875 96.359375 -20.5 100.109375 -18 C 103.859375 -15.5 109.101562 -14.25 115.84375 -14.25 C 137.84375 -14.25 156.898438 -21.679688 173.015625 -36.546875 C 189.140625 -51.421875 201.328125 -70.476562 209.578125 -93.71875 C 217.828125 -116.96875 221.953125 -140.84375 221.953125 -165.34375 C 221.953125 -179.59375 219.390625 -192.648438 214.265625 -204.515625 C 209.140625 -216.390625 201.828125 -225.828125 192.328125 -232.828125 C 182.835938 -239.828125 171.71875 -243.328125 158.96875 -243.328125 L 155.21875 -243.328125 L 97.859375 -43.484375 C 97.609375 -42.234375 96.984375 -39.921875 95.984375 -36.546875 C 94.984375 -33.179688 94.484375 -30.375 94.484375 -28.125 Z M 94.484375 -28.125 "/></g></g></g></svg>